<svg id="Layer_1" data-name="Layer 1" xmlns="http://www.w3.org/2000/svg" viewBox="0 0 16 16"><title>PasteLink_16</title><polygon points="4 9 7 12 15 12 15 1 4 1 4 9" fill="#fff"/><path d="M11,12h4V1H4V7H3V1A1,1,0,0,1,4,0H15a1,1,0,0,1,1,1V12a1,1,0,0,1-1,1H11V12Z" fill="#798288"/><path d="M8.07,3L9.45,4.38S7.67,6,7.21,6.59A1.56,1.56,0,0,0,7,8H8.49a0.79,0.79,0,0,1,.15-0.68l2-1.79L12,6.9V3H8.07Z" fill="#80abce"/><polygon points="9 15 1 15 1 9 4 9 5 10 9 10 9 15" fill="#fff"/><path d="M3.59,9L4.29,9.71A1,1,0,0,0,5,10H9v5H1V9H3.59M4,8H1A1,1,0,0,0,0,9v6a1,1,0,0,0,1,1H9a1,1,0,0,0,1-1V10A1,1,0,0,0,9,9H5L4,8H4Z" fill="#576672"/></svg>