<svg id="Layer_1" data-name="Layer 1" xmlns="http://www.w3.org/2000/svg" viewBox="0 0 32 32"><title>PasteLink_32</title><rect x="14" y="2" width="16" height="16" fill="#fff"/><path d="M18.31,10.57c-0.55.7-1,4.31,4.36,4.43-3.32-1.78-2.06-3.29-2.06-3.29l3.16-2.78L26,11.07V5H19.72l2.22,2.14A48.12,48.12,0,0,0,18.31,10.57Z" fill="#80abce"/><path d="M19.08,29.77H1.92A0.86,0.86,0,0,1,1,29V14.77A0.86,0.86,0,0,1,1.92,14H7l4,3h8.08A1.05,1.05,0,0,1,20,18V29A0.86,0.86,0,0,1,19.08,29.77Z" fill="#fff"/><path d="M7,15l3,3h9V29H2V15H7m1-2H1a1,1,0,0,0-1,1V30a1,1,0,0,0,1,1H20a1,1,0,0,0,1-1V17a1,1,0,0,0-1-1H11L8,13H8Z" fill="#798288"/><path d="M31,0H13a1,1,0,0,0-1,1V15h2V2H30V18H22v2h9a1,1,0,0,0,1-1V1A1,1,0,0,0,31,0Z" fill="#9da2a5"/></svg>